<svg width="32" height="32" fill="none" xmlns="http://www.w3.org/2000/svg"><path opacity=".2" d="M30.746 31.502c0-.273-6.12-.497-13.66-.497s-13.66.224-13.66.497 6.12.498 13.66.498c7.558 0 13.66-.225 13.66-.498z" fill="#5D5D5D"/><path d="M17.28 6.299c5.943 0 10.765 4.414 10.765 9.856v9.857H17.28c-5.944 0-10.766-4.415-10.766-9.857V6.3H17.28z" fill="#63A60F"/><path opacity=".3" d="M26.502 11.082c-.894.948-1.437 2.184-1.437 3.532 0 2.007 1.192 3.757 2.963 4.704v-3.163a9.17 9.17 0 00-1.526-5.073z" fill="#63A60F"/><path d="M22.276 7.438c-1.683.883-2.805 2.537-2.805 4.447 0 2.825 2.507 5.121 5.593 5.121a5.907 5.907 0 002.964-.786v-.065c0-3.788-2.332-7.08-5.752-8.717z" fill="#63A60F"/><path opacity=".5" d="M13.825 8.209c-2.77 0-5.313.882-7.312 2.375v5.587c0 5.442 4.822 9.857 10.766 9.857h5.155c1.877-1.894 3.016-4.399 3.016-7.16 0-5.892-5.207-10.66-11.625-10.66z" fill="#EFF6E7"/><path d="M28.028 25.996l-10.749.016c-5.944 0-10.766-4.415-10.766-9.857v-9.84l21.515 19.681z" fill="#63A60F"/><path opacity=".3" d="M8.179 9.83c0 7.481 6.628 13.533 14.781 13.533.702 0 1.386-.048 2.052-.128L8.319 7.968c-.088.61-.14 1.236-.14 1.862z" fill="#63A60F"/><path opacity=".3" d="M28.028 26.012L6.6 6.395c2.525 3.451 5.436 6.951 8.4 9.84 2.314 2.248 8.995 7.273 13.028 9.777z" fill="#63A60F"/><path opacity=".3" d="M13.544 12.736L6.513 6.315v9.856c0 4.35 3.086 8.043 7.347 9.344-1.824-1.686-2.946-3.998-2.946-6.534 0-2.408 1-4.592 2.63-6.245z" fill="#63A60F"/><path opacity=".3" d="M23.118 21.517c-1.823 2.039-4.594 3.355-7.697 3.355-2.07 0-3.998-.578-5.594-1.573 1.929 1.686 4.541 2.73 7.435 2.73h10.766v-.017l-4.91-4.495z" fill="#63A60F"/><path opacity=".3" d="M7.144 12.206c0-1.59.298-3.13.86-4.543L6.512 6.315v9.856c0 5.442 4.822 9.857 10.766 9.857h10.766v-.016l-1.07-.98a15.86 15.86 0 01-4.98.788c-8.205-.017-14.85-6.1-14.85-13.614z" fill="#EFF6E7"/><path d="M27.853 27.922c.754-.192 1.543.225 1.735.915.21.69-.245 1.413-1.017 1.59-.754.192-1.543-.225-1.735-.915-.193-.69.263-1.397 1.017-1.59zm-.281-.979c-1.35.337-2.157 1.59-1.788 2.826.35 1.236 1.735 1.974 3.086 1.637 1.35-.337 2.156-1.605 1.788-2.825-.35-1.236-1.736-1.959-3.086-1.638z" fill="#63A60F"/><path opacity=".5" d="M29.36 29.961a1.505 1.505 0 01-.771.482c-.754.192-1.543-.225-1.736-.915a1.226 1.226 0 01.473-1.333 7.782 7.782 0 01-.56-.883c-.842.546-1.263 1.525-.983 2.488.35 1.237 1.736 1.975 3.086 1.638a2.564 2.564 0 001.473-.98c-.333-.16-.666-.32-.982-.497z" fill="#63A60F"/><path d="M7.021 27.922c.754-.176 1.543.241 1.736.932.193.69-.263 1.412-1.017 1.589-.754.176-1.543-.241-1.736-.931-.193-.69.263-1.413 1.017-1.59zm-.28-.979c-1.35.321-2.157 1.59-1.806 2.826.35 1.236 1.735 1.974 3.086 1.653 1.35-.321 2.156-1.59 1.823-2.825-.368-1.236-1.753-1.975-3.103-1.654z" fill="#63A60F"/><path opacity=".5" d="M8.512 29.977a1.385 1.385 0 01-.772.466c-.754.176-1.543-.241-1.736-.931-.14-.514.07-1.028.474-1.333a5.822 5.822 0 01-.544-.883c-.841.53-1.28 1.51-1 2.472.351 1.236 1.737 1.975 3.087 1.654a2.439 2.439 0 001.473-.98 6.73 6.73 0 01-.982-.465z" fill="#63A60F"/><path d="M7.197 5.624c-.333 0-.614-.257-.614-.562 0-1.316-.403-2.311-1.175-2.97C4.163 1.018 2.287 1.13 2.27 1.13c-.333.032-.63-.208-.666-.513-.035-.305.228-.578.561-.61.105 0 2.42-.16 4.068 1.236 1.052.883 1.578 2.167 1.578 3.804 0 .321-.263.578-.613.578z" fill="#63A60F"/></svg>