<svg width="48" height="48" fill="none" xmlns="http://www.w3.org/2000/svg"><rect width="48" height="48" rx="24" fill="#fff"/><path d="M22.242 30.472c-4.545 0-8.242-3.695-8.242-8.236S17.697 14 22.242 14c4.545 0 8.242 3.695 8.242 8.236s-3.697 8.236-8.242 8.236zm0-14.91c-3.683 0-6.68 2.993-6.68 6.674 0 3.68 2.997 6.674 6.68 6.674s6.68-2.994 6.68-6.674-2.997-6.675-6.68-6.675zm11.53 18.21a.78.78 0 000-1.105l-3.497-3.493a.782.782 0 00-1.105 1.104l3.496 3.493a.78.78 0 001.105 0z" fill="#63A60E"/></svg>