<svg width="198" height="60" viewBox="0 0 198 60" fill="none" xmlns="http://www.w3.org/2000/svg">
<path d="M79.584 30.18C77.4747 30.18 75.72 29.928 74.32 29.424C72.9387 28.92 71.9027 28.0893 71.212 26.932C70.54 25.756 70.204 24.188 70.204 22.228C70.204 20.2307 70.5493 18.6627 71.24 17.524C71.9493 16.3853 72.9947 15.5733 74.376 15.088C75.776 14.6027 77.512 14.36 79.584 14.36C81.712 14.36 83.4667 14.612 84.848 15.116C86.2293 15.6013 87.256 16.4227 87.928 17.58C88.6187 18.7187 88.964 20.268 88.964 22.228C88.964 24.2253 88.6093 25.812 87.9 26.988C87.2093 28.1453 86.164 28.9667 84.764 29.452C83.3827 29.9373 81.656 30.18 79.584 30.18ZM79.584 27.856C80.8533 27.856 81.8987 27.7813 82.72 27.632C83.56 27.464 84.204 27.184 84.652 26.792C85.1187 26.3813 85.436 25.8213 85.604 25.112C85.7907 24.384 85.884 23.4507 85.884 22.312C85.884 21.1547 85.7907 20.212 85.604 19.484C85.436 18.7373 85.1187 18.1587 84.652 17.748C84.204 17.3373 83.56 17.0573 82.72 16.908C81.8987 16.74 80.8533 16.656 79.584 16.656C78.3333 16.656 77.2973 16.74 76.476 16.908C75.6547 17.0573 75.0107 17.3373 74.544 17.748C74.0773 18.1587 73.7507 18.7373 73.564 19.484C73.396 20.212 73.312 21.1547 73.312 22.312C73.312 23.4507 73.4053 24.384 73.592 25.112C73.7787 25.8213 74.1053 26.3813 74.572 26.792C75.0387 27.184 75.6827 27.464 76.504 27.632C77.3253 27.7813 78.352 27.856 79.584 27.856ZM78.1 32.028L78.184 23.04L78.1 12.484H81.096L80.984 21.108L81.096 32L78.1 32.028ZM92.9081 32L93.0201 22.928L92.9081 12.484C92.9081 12.484 93.1134 12.4653 93.5241 12.428C93.9534 12.3907 94.5041 12.344 95.1761 12.288C95.8481 12.232 96.5854 12.1853 97.3881 12.148C98.1907 12.1107 98.9654 12.092 99.7121 12.092C101.485 12.092 102.857 12.652 103.828 13.772C104.817 14.8733 105.312 16.5347 105.312 18.756C105.312 20.1373 105.135 21.2853 104.78 22.2C104.425 23.096 103.949 23.796 103.352 24.3C102.773 24.804 102.111 25.168 101.364 25.392C100.636 25.5973 99.8894 25.7 99.1241 25.7C98.5081 25.7 97.8734 25.6813 97.2201 25.644C96.5667 25.588 96.1187 25.56 95.8761 25.56V32H92.9081ZM99.2641 23.264C99.8241 23.264 100.272 23.2267 100.608 23.152C100.963 23.0773 101.243 22.9467 101.448 22.76C101.728 22.48 101.915 21.9853 102.008 21.276C102.12 20.5667 102.176 19.6333 102.176 18.476C102.176 17.5427 102.129 16.8333 102.036 16.348C101.961 15.844 101.859 15.4893 101.728 15.284C101.597 15.06 101.467 14.9107 101.336 14.836C101.168 14.7053 100.888 14.6027 100.496 14.528C100.104 14.4347 99.6374 14.388 99.0961 14.388C98.4614 14.388 97.8547 14.416 97.2761 14.472C96.6974 14.528 96.2307 14.584 95.8761 14.64V22.956C96.0627 22.9747 96.4827 23.0307 97.1361 23.124C97.8081 23.2173 98.5174 23.264 99.2641 23.264ZM109.506 32V12.484H119.754V15.06L111.158 14.948L112.53 13.632L112.306 21.92L111.018 20.828H119.054V23.32H111.018L112.306 22.172L112.53 30.824L111.158 29.48L119.754 29.424V32H109.506ZM124.217 32V12.484H127.185L127.101 21.948V30.768L125.757 29.424H134.521L133.177 30.768L133.205 22.088L133.149 12.484H136.117L136.033 22.088L136.089 30.768L134.745 29.424H143.425L142.081 30.768V22.004L141.997 12.484H144.965V32H124.217ZM157.075 32.392C156.049 32.392 155.078 32.2427 154.163 31.944C153.249 31.6453 152.437 31.1227 151.727 30.376C151.037 29.6293 150.495 28.5933 150.103 27.268C149.711 25.9427 149.515 24.2533 149.515 22.2C149.515 20.1467 149.711 18.4667 150.103 17.16C150.495 15.8347 151.037 14.808 151.727 14.08C152.437 13.3333 153.249 12.82 154.163 12.54C155.078 12.2413 156.049 12.092 157.075 12.092C158.102 12.092 159.063 12.2413 159.959 12.54C160.874 12.82 161.677 13.3333 162.367 14.08C163.077 14.808 163.627 15.8253 164.019 17.132C164.411 18.4387 164.607 20.128 164.607 22.2C164.607 24.2533 164.411 25.9427 164.019 27.268C163.627 28.5933 163.077 29.6293 162.367 30.376C161.677 31.1227 160.874 31.6453 159.959 31.944C159.063 32.2427 158.102 32.392 157.075 32.392ZM157.075 29.732C157.822 29.732 158.475 29.648 159.035 29.48C159.595 29.312 160.053 28.976 160.407 28.472C160.781 27.9493 161.051 27.1933 161.219 26.204C161.406 25.2147 161.499 23.8987 161.499 22.256C161.499 20.632 161.415 19.3253 161.247 18.336C161.079 17.328 160.818 16.572 160.463 16.068C160.109 15.5453 159.642 15.1907 159.063 15.004C158.503 14.8173 157.841 14.724 157.075 14.724C156.273 14.724 155.591 14.8173 155.031 15.004C154.49 15.1907 154.042 15.5453 153.687 16.068C153.333 16.572 153.071 17.328 152.903 18.336C152.735 19.3253 152.651 20.6413 152.651 22.284C152.651 23.908 152.735 25.2147 152.903 26.204C153.071 27.1933 153.333 27.9493 153.687 28.472C154.061 28.976 154.527 29.312 155.087 29.48C155.647 29.648 156.31 29.732 157.075 29.732ZM179.978 32L172.222 21.892L179.418 12.484H183.002L175.582 21.724V21.892L183.73 32H179.978ZM169.17 32L169.254 22.088L169.17 12.484H172.166V32H169.17Z" fill="#63A60E"/>
<path d="M82.2805 50.168C81.8405 50.168 81.4245 50.104 81.0325 49.976C80.6405 49.848 80.2925 49.624 79.9885 49.304C79.6925 48.984 79.4605 48.54 79.2925 47.972C79.1245 47.404 79.0405 46.68 79.0405 45.8C79.0405 44.92 79.1245 44.2 79.2925 43.64C79.4605 43.072 79.6925 42.632 79.9885 42.32C80.2925 42 80.6405 41.78 81.0325 41.66C81.4245 41.532 81.8405 41.468 82.2805 41.468C82.7205 41.468 83.1325 41.532 83.5165 41.66C83.9085 41.78 84.2525 42 84.5485 42.32C84.8525 42.632 85.0885 43.068 85.2565 43.628C85.4245 44.188 85.5085 44.912 85.5085 45.8C85.5085 46.68 85.4245 47.404 85.2565 47.972C85.0885 48.54 84.8525 48.984 84.5485 49.304C84.2525 49.624 83.9085 49.848 83.5165 49.976C83.1325 50.104 82.7205 50.168 82.2805 50.168ZM82.2805 49.028C82.6005 49.028 82.8805 48.992 83.1205 48.92C83.3605 48.848 83.5565 48.704 83.7085 48.488C83.8685 48.264 83.9845 47.94 84.0565 47.516C84.1365 47.092 84.1765 46.528 84.1765 45.824C84.1765 45.128 84.1405 44.568 84.0685 44.144C83.9965 43.712 83.8845 43.388 83.7325 43.172C83.5805 42.948 83.3805 42.796 83.1325 42.716C82.8925 42.636 82.6085 42.596 82.2805 42.596C81.9365 42.596 81.6445 42.636 81.4045 42.716C81.1725 42.796 80.9805 42.948 80.8285 43.172C80.6765 43.388 80.5645 43.712 80.4925 44.144C80.4205 44.568 80.3845 45.132 80.3845 45.836C80.3845 46.532 80.4205 47.092 80.4925 47.516C80.5645 47.94 80.6765 48.264 80.8285 48.488C80.9885 48.704 81.1885 48.848 81.4285 48.92C81.6685 48.992 81.9525 49.028 82.2805 49.028ZM87.4638 50V41.636H88.7358L88.6998 45.608L88.1358 45.188H92.5638L91.9998 45.608L91.9638 41.636H93.2358V50H91.9638L91.9998 45.872L92.5638 46.292H88.1358L88.6998 45.872L88.7358 50H87.4638ZM94.8649 50.168L94.6489 49.22C94.7609 49.204 94.8649 49.188 94.9609 49.172C95.0569 49.148 95.1369 49.124 95.2009 49.1C95.3609 49.044 95.4849 48.964 95.5729 48.86C95.6609 48.756 95.7289 48.58 95.7769 48.332C95.8329 48.084 95.8729 47.724 95.8969 47.252L96.2689 41.636H101.117V50H99.8449L99.9049 42.728H97.4329L97.1209 47.372C97.0809 47.94 97.0129 48.416 96.9169 48.8C96.8209 49.184 96.6529 49.476 96.4129 49.676C96.2449 49.82 96.0209 49.936 95.7409 50.024C95.4689 50.12 95.1769 50.168 94.8649 50.168ZM102.296 50L104.576 41.636H106.304L108.584 50H107.288L106.64 47.444L107.312 47.888H103.592L104.24 47.444L103.604 50H102.296ZM104.252 47.372L103.82 46.796H107.072L106.64 47.372L105.344 42.224L106.052 42.776H104.84L105.536 42.224L104.252 47.372ZM109.788 50V41.636H111.012L110.964 45.884V48.176L114.06 41.636H115.812V50H114.588L114.636 46.148V42.932L111.3 50H109.788ZM112.776 41.324C112.168 41.324 111.696 41.18 111.36 40.892C111.032 40.604 110.852 40.144 110.82 39.512L111.636 39.476C111.676 39.764 111.78 39.98 111.948 40.124C112.116 40.268 112.392 40.34 112.776 40.34C113.2 40.34 113.496 40.268 113.664 40.124C113.832 39.98 113.936 39.764 113.976 39.476L114.696 39.512C114.68 39.936 114.592 40.284 114.432 40.556C114.272 40.82 114.052 41.016 113.772 41.144C113.5 41.264 113.168 41.324 112.776 41.324ZM118.167 50V41.636H119.439L119.403 45.608L118.839 45.188H123.267L122.703 45.608L122.667 41.636H123.939V50H122.667L122.703 45.872L123.267 46.292H118.839L119.403 45.872L119.439 50H118.167ZM125.58 46.604V45.536H128.436V46.604H125.58ZM130.037 50L130.325 41.636H132.065L133.805 46.88H133.889L135.653 41.636H137.393L137.681 50H136.421L136.373 42.968H136.289L134.573 48.104H133.133L131.429 42.968H131.345L131.297 50H130.037ZM138.8 50L141.08 41.636H142.808L145.088 50H143.792L143.144 47.444L143.816 47.888H140.096L140.744 47.444L140.108 50H138.8ZM140.756 47.372L140.324 46.796H143.576L143.144 47.372L141.848 42.224L142.556 42.776H141.344L142.04 42.224L140.756 47.372ZM146.292 50L146.34 46.112L146.292 41.636C146.292 41.636 146.38 41.628 146.556 41.612C146.74 41.596 146.976 41.576 147.264 41.552C147.552 41.528 147.868 41.508 148.212 41.492C148.556 41.476 148.888 41.468 149.208 41.468C149.968 41.468 150.556 41.708 150.972 42.188C151.396 42.66 151.608 43.372 151.608 44.324C151.608 44.916 151.532 45.408 151.38 45.8C151.228 46.184 151.024 46.484 150.768 46.7C150.52 46.916 150.236 47.072 149.916 47.168C149.604 47.256 149.284 47.3 148.956 47.3C148.692 47.3 148.42 47.292 148.14 47.276C147.86 47.252 147.668 47.24 147.564 47.24V50H146.292ZM149.016 46.256C149.256 46.256 149.448 46.24 149.592 46.208C149.744 46.176 149.864 46.12 149.952 46.04C150.072 45.92 150.152 45.708 150.192 45.404C150.24 45.1 150.264 44.7 150.264 44.204C150.264 43.804 150.244 43.5 150.204 43.292C150.172 43.076 150.128 42.924 150.072 42.836C150.016 42.74 149.96 42.676 149.904 42.644C149.832 42.588 149.712 42.544 149.544 42.512C149.376 42.472 149.176 42.452 148.944 42.452C148.672 42.452 148.412 42.464 148.164 42.488C147.916 42.512 147.716 42.536 147.564 42.56V46.124C147.644 46.132 147.824 46.156 148.104 46.196C148.392 46.236 148.696 46.256 149.016 46.256ZM158.037 50L154.713 45.668L157.797 41.636H159.333L156.153 45.596V45.668L159.645 50H158.037ZM153.405 50L153.441 45.752L153.405 41.636H154.689V50H153.405ZM160.636 50V41.636H165.028V42.74L161.344 42.692L161.932 42.128L161.836 45.68L161.284 45.212H164.728V46.28H161.284L161.836 45.788L161.932 49.496L161.344 48.92L165.028 48.896V50H160.636ZM168.044 50L168.068 42.704L165.728 42.74V41.636H171.644V42.74L169.28 42.704L169.304 50H168.044Z" fill="#63A60E"/>
<path opacity="0.2" d="M54.6482 59.0669C54.6482 58.5552 43.174 58.1338 29.0366 58.1338C14.8993 58.1338 3.42505 58.5552 3.42505 59.0669C3.42505 59.5786 14.8993 60 29.0366 60C43.2069 60 54.6482 59.5786 54.6482 59.0669Z" fill="#5D5D5D"/>
<path d="M29.3985 11.8098C40.544 11.8098 49.5853 20.0873 49.5853 30.2913V48.7727H29.3985C18.253 48.7727 9.21167 40.4952 9.21167 30.2913V11.8098H29.3985Z" fill="#63A60E"/>
<path opacity="0.3" d="M46.692 20.7796C45.0153 22.5555 43.9961 24.8732 43.9961 27.4016C43.9961 31.1641 46.2318 34.445 49.5524 36.2209V30.2912C49.5524 26.8297 48.5332 23.5789 46.692 20.7796Z" fill="#63A60E"/>
<path d="M38.7685 13.9468C35.6122 15.6023 33.5081 18.7027 33.5081 22.2846C33.5081 27.5822 38.2095 31.8865 43.996 31.8865C46.0344 31.8865 47.9413 31.3447 49.5523 30.4116V30.2912C49.5523 23.1876 45.1796 17.017 38.7685 13.9468Z" fill="#63A60E"/>
<path opacity="0.5" d="M22.9216 15.3909C17.7269 15.3909 12.9597 17.0464 9.21167 19.8457V30.3205C9.21167 40.5245 18.253 48.802 29.3985 48.802H39.0645C42.5824 45.2502 44.7194 40.5546 44.7194 35.3773C44.7194 24.3306 34.9548 15.3909 22.9216 15.3909Z" fill="#E0EDCF"/>
<path d="M49.5524 48.7426L29.3985 48.7727C18.253 48.7727 9.21167 40.4951 9.21167 30.2912V11.8398L49.5524 48.7426Z" fill="#63A60E"/>
<path opacity="0.3" d="M12.335 18.4317C12.335 32.4584 24.7627 43.8061 40.0507 43.8061C41.3658 43.8061 42.648 43.7158 43.8974 43.5653L12.598 14.9401C12.4336 16.0839 12.335 17.2578 12.335 18.4317Z" fill="#63A60E"/>
<path opacity="0.3" d="M49.5523 48.7727L9.37598 11.9904C14.1103 18.4619 19.568 25.0237 25.1243 30.4417C29.4641 34.6557 41.9905 44.0771 49.5523 48.7727Z" fill="#63A60E"/>
<path opacity="0.3" d="M22.3956 23.8799L9.21167 11.8398V30.3213C9.21167 38.4784 14.9981 45.4014 22.9874 47.8396C19.5681 44.679 17.4639 40.3446 17.4639 35.5888C17.4639 31.0738 19.3379 26.9802 22.3956 23.8799Z" fill="#63A60E"/>
<path opacity="0.3" d="M40.3467 40.3447C36.9274 44.1674 31.7328 46.6356 25.9135 46.6356C22.0339 46.6356 18.4174 45.552 15.4255 43.6858C19.0421 46.8463 23.9408 48.8028 29.3656 48.8028H49.5524V48.7727L40.3467 40.3447Z" fill="#63A60E"/>
<path opacity="0.3" d="M10.3953 22.8866C10.3953 19.9067 10.9542 17.0171 12.0063 14.3683L9.21167 11.8398V30.3213C9.21167 40.5252 18.253 48.8028 29.3985 48.8028H49.5853V48.7727L47.5797 46.9366C44.6536 47.8998 41.5303 48.4115 38.2425 48.4115C22.8558 48.3814 10.3953 36.9734 10.3953 22.8866Z" fill="#E0EDCF"/>
<path d="M49.2235 52.3546C50.6372 51.9934 52.1167 52.776 52.4784 54.0703C52.8729 55.3646 52.0181 56.7191 50.5715 57.0502C49.1577 57.4114 47.6782 56.6288 47.3166 55.3345C46.9549 54.0402 47.8097 52.7158 49.2235 52.3546ZM48.6974 50.5185C46.1659 51.1506 44.6535 53.4984 45.3439 55.8161C46.0015 58.1338 48.5988 59.5184 51.1304 58.8863C53.662 58.2542 55.1743 55.8763 54.4839 53.5887C53.8263 51.271 51.229 49.9165 48.6974 50.5185Z" fill="#63A60E"/>
<path opacity="0.5" d="M52.0505 56.1768C51.6888 56.5983 51.1956 56.9294 50.6038 57.0799C49.1901 57.4411 47.7106 56.6584 47.349 55.3641C47.086 54.4009 47.4476 53.4377 48.2367 52.8658C47.8421 52.3541 47.5134 51.7822 47.1846 51.2103C45.6065 52.2337 44.8174 54.0698 45.3434 55.8758C46.001 58.1936 48.5983 59.5782 51.1299 58.9461C52.3135 58.6451 53.2669 57.9829 53.8916 57.1099C53.2669 56.8089 52.6423 56.5079 52.0505 56.1768Z" fill="#63A60E"/>
<path d="M10.1648 52.3546C11.5785 52.0235 13.058 52.8061 13.4196 54.1004C13.7813 55.3947 12.9265 56.7492 11.5127 57.0803C10.099 57.4114 8.61952 56.6288 8.25787 55.3345C7.89622 54.0402 8.75103 52.6857 10.1648 52.3546ZM9.63872 50.5185C7.10716 51.1205 5.59479 53.4984 6.25234 55.8161C6.90989 58.1338 9.50721 59.5184 12.0388 58.9164C14.5704 58.3144 16.0827 55.9365 15.458 53.6188C14.7676 51.3011 12.1703 49.9165 9.63872 50.5185Z" fill="#63A60E"/>
<path opacity="0.5" d="M12.9597 56.207C12.598 56.6284 12.1049 56.9595 11.5131 57.0799C10.0993 57.411 8.61984 56.6284 8.25819 55.3341C7.99517 54.3709 8.3897 53.4077 9.14588 52.8358C8.75135 52.3241 8.42258 51.7522 8.12668 51.1803C6.54856 52.1736 5.72662 54.0097 6.25266 55.8157C6.91021 58.1334 9.50754 59.518 12.0391 58.916C13.2227 58.6451 14.209 57.9528 14.8008 57.0799C14.1433 56.8391 13.5515 56.5381 12.9597 56.207Z" fill="#63A60E"/>
<path d="M10.4938 10.5455C9.86915 10.5455 9.34311 10.0639 9.34311 9.49205C9.34311 7.02384 8.58693 5.15763 7.14031 3.92353C4.80601 1.90682 1.28812 2.11752 1.25524 2.11752C0.630565 2.17772 0.071647 1.72622 0.00589198 1.15432C-0.0598631 0.582418 0.4333 0.0707164 1.05797 0.0105162C1.25524 0.0105162 5.59507 -0.290485 8.68556 2.32822C10.6582 3.98373 11.6445 6.39174 11.6445 9.46194C11.6445 10.0639 11.1514 10.5455 10.4938 10.5455Z" fill="#63A60E"/>
</svg>
