<?xml version="1.0" encoding="utf-8"?><svg viewBox="0 0 60 60" xmlns="http://www.w3.org/2000/svg" xmlns:xlink="http://www.w3.org/1999/xlink"><style>:root>svg{display:none}:root>svg:target{display:block}</style><svg viewBox="0 0 8 4" id="arrow-down" xmlns="http://www.w3.org/2000/svg"><path d="M3.475 3.894L.223.627a.37.37 0 010-.52.363.363 0 01.516 0l2.994 3.008L6.728.108a.364.364 0 01.516 0 .37.37 0 010 .52L3.992 3.893a.367.367 0 01-.517 0z"/></svg><svg viewBox="0 0 60 60" id="arrow-left" xmlns="http://www.w3.org/2000/svg"><rect width="60" height="60" rx="6" fill-opacity=".8"/><path d="M21.038 31.015l16.013 14.593a1.35 1.35 0 001.904 0 1.335 1.335 0 000-1.894L23.907 30l15.046-13.714a1.335 1.335 0 000-1.894 1.35 1.35 0 00-1.903 0L21.037 28.985c-.28.279-.4.648-.382 1.014a1.33 1.33 0 00.383 1.016z"/></svg><svg viewBox="0 0 60 60" id="arrow-right" xmlns="http://www.w3.org/2000/svg"><rect width="60" height="60" rx="6" fill-opacity=".8"/><path d="M38.964 28.985L22.951 14.392a1.35 1.35 0 00-1.903 0 1.335 1.335 0 000 1.894L36.095 30 21.05 43.714a1.335 1.335 0 000 1.894 1.35 1.35 0 001.903 0l16.013-14.593c.28-.279.4-.648.382-1.014a1.33 1.33 0 00-.383-1.016z"/></svg><svg viewBox="0 0 16 16" id="basket-btn" xmlns="http://www.w3.org/2000/svg"><path d="M15.899 2.02a.462.462 0 00-.36-.174H3.255L2.91.358A.462.462 0 002.461 0h-2a.462.462 0 000 .923h1.633l2.332 10.104c.048.21.235.358.45.358h9.247a.461.461 0 100-.923h-8.88l-.355-1.539h9.266c.216 0 .403-.15.45-.36l1.385-6.154a.462.462 0 00-.09-.39zM13.785 8h-9.11L3.468 2.77h11.494L13.785 8zM6.77 12c-.934 0-1.693.76-1.693 1.692 0 .933.76 1.693 1.692 1.693.933 0 1.693-.76 1.693-1.693S7.702 12 6.769 12zm0 2.461a.77.77 0 11.001-1.54.77.77 0 01-.002 1.54zM12.308 12c-.934 0-1.693.76-1.693 1.692 0 .933.76 1.693 1.693 1.693S14 14.625 14 13.692 13.24 12 12.308 12zm0 2.461a.77.77 0 11.001-1.54.77.77 0 01-.001 1.54z"/></svg><svg viewBox="0 0 47 47" id="btn-view--grid" xmlns="http://www.w3.org/2000/svg"><rect width="47" height="47" rx="3"/><path d="M12.044 32.444H7.511c-.834 0-1.511.677-1.511 1.512v4.533C6 39.324 6.677 40 7.511 40h4.533c.835 0 1.512-.676 1.512-1.511v-4.533c0-.835-.677-1.512-1.512-1.512zM26.211 32.444h-4.533c-.835 0-1.511.677-1.511 1.512v4.533c0 .835.676 1.511 1.51 1.511h4.534c.835 0 1.511-.676 1.511-1.511v-4.533c0-.835-.676-1.512-1.51-1.512zM40.378 32.444h-4.534c-.834 0-1.51.677-1.51 1.512v4.533c0 .835.676 1.511 1.51 1.511h4.534c.834 0 1.51-.676 1.51-1.511v-4.533c0-.835-.676-1.512-1.51-1.512zM12.044 19.222H7.511C6.677 19.222 6 19.9 6 20.733v4.534c0 .834.677 1.51 1.511 1.51h4.533c.835 0 1.512-.676 1.512-1.51v-4.534c0-.834-.677-1.51-1.512-1.51zM26.211 19.222h-4.533c-.835 0-1.511.677-1.511 1.511v4.534c0 .834.676 1.51 1.51 1.51h4.534c.835 0 1.511-.676 1.511-1.51v-4.534c0-.834-.676-1.51-1.51-1.51zM40.378 19.222h-4.534c-.834 0-1.51.677-1.51 1.511v4.534c0 .834.676 1.51 1.51 1.51h4.534c.834 0 1.51-.676 1.51-1.51v-4.534c0-.834-.676-1.51-1.51-1.51zM12.044 6H7.511C6.677 6 6 6.677 6 7.511v4.533c0 .835.677 1.512 1.511 1.512h4.533c.835 0 1.512-.677 1.512-1.512V7.511c0-.834-.677-1.511-1.512-1.511zM26.211 6h-4.533c-.835 0-1.511.677-1.511 1.511v4.533c0 .835.676 1.512 1.51 1.512h4.534c.835 0 1.511-.677 1.511-1.512V7.511c0-.834-.676-1.511-1.51-1.511zM40.378 6h-4.534c-.834 0-1.51.677-1.51 1.511v4.533c0 .835.676 1.512 1.51 1.512h4.534c.834 0 1.51-.677 1.51-1.512V7.511c0-.834-.676-1.511-1.51-1.511z"/></svg><svg viewBox="0 0 47 47" id="btn-view--list" xmlns="http://www.w3.org/2000/svg"><rect width="47" height="47" rx="3"/><path d="M38.4 34h-7.8c-1.436 0-2.6.627-2.6 1.4v4.2c0 .773 1.164 1.4 2.6 1.4h7.8c1.436 0 2.6-.627 2.6-1.4v-4.2c0-.773-1.164-1.4-2.6-1.4zM16.4 34H8.6c-1.436 0-2.6.627-2.6 1.4v4.2c0 .773 1.164 1.4 2.6 1.4h7.8c1.436 0 2.6-.627 2.6-1.4v-4.2c0-.773-1.164-1.4-2.6-1.4zM38.4 20h-7.8c-1.436 0-2.6.627-2.6 1.4v4.2c0 .773 1.164 1.4 2.6 1.4h7.8c1.436 0 2.6-.627 2.6-1.4v-4.2c0-.773-1.164-1.4-2.6-1.4zM16.4 20H8.6c-1.436 0-2.6.627-2.6 1.4v4.2c0 .773 1.164 1.4 2.6 1.4h7.8c1.436 0 2.6-.627 2.6-1.4v-4.2c0-.773-1.164-1.4-2.6-1.4zM38.4 6h-7.8c-1.436 0-2.6.627-2.6 1.4v4.2c0 .773 1.164 1.4 2.6 1.4h7.8c1.436 0 2.6-.627 2.6-1.4V7.4c0-.773-1.164-1.4-2.6-1.4zM16.4 6H8.6C7.164 6 6 6.627 6 7.4v4.2c0 .773 1.164 1.4 2.6 1.4h7.8c1.436 0 2.6-.627 2.6-1.4V7.4c0-.773-1.164-1.4-2.6-1.4z"/></svg><svg viewBox="0 0 12 9" id="checked" xmlns="http://www.w3.org/2000/svg"><path d="M4.196 8.393a.587.587 0 01-.416-.173L.173 4.613a.588.588 0 11.832-.833l3.191 3.19L10.995.174a.588.588 0 11.832.833L4.613 8.22a.588.588 0 01-.417.173z"/></svg><svg viewBox="0 0 9 9" id="clean-icon" xmlns="http://www.w3.org/2000/svg"><g clip-path="url(#ahclip0_26184_274)"><path d="M4.938 4.233L8.293.878a.326.326 0 10-.46-.46L4.476 3.771 1.122.417a.326.326 0 00-.46.461l3.355 3.355L.662 7.588a.326.326 0 00.46.461l3.355-3.355 3.355 3.355a.326.326 0 00.461-.46L4.938 4.232z"/></g><defs><clipPath id="ahclip0_26184_274"><path transform="translate(.566 .317)" d="M0 0h7.827v7.827H0z"/></clipPath></defs></svg><svg viewBox="0 0 33 32" id="facebook" xmlns="http://www.w3.org/2000/svg"><g clip-path="url(#aiclip0_20_50)"><path d="M21.65 5.313h2.901V.225C24.051.156 22.33 0 20.325 0c-4.183 0-7.048 2.65-7.048 7.519V12H8.66v5.688h4.616V32h5.659V17.69h4.429L24.068 12h-5.133V8.083c0-1.644.44-2.77 2.715-2.77z"/></g><defs><clipPath id="aiclip0_20_50"><path transform="translate(.469)" d="M0 0h31.778v32H0z"/></clipPath></defs></svg><svg viewBox="0 0 18 11" id="filter-arrow" xmlns="http://www.w3.org/2000/svg"><path d="M8.43.7L.22 9.708a.76.76 0 000 1.07.75.75 0 001.066 0L9 2.314l7.714 8.464a.75.75 0 001.066 0 .76.76 0 000-1.07L9.57.7A.742.742 0 009 .485.748.748 0 008.43.7z"/></svg><svg viewBox="0 0 47 47" id="filter-btn" xmlns="http://www.w3.org/2000/svg"><rect width="47" height="47" rx="3"/><g clip-path="url(#akclip0_862_5405)"><path d="M21.78 33.125H9.14C8.51 33.125 8 33.63 8 34.25s.51 1.125 1.139 1.125H21.78c.528 2.567 2.825 4.5 5.58 4.5 2.754 0 5.05-1.933 5.578-4.5h5.809c.629 0 1.139-.504 1.139-1.125 0-.62-.51-1.125-1.14-1.125h-5.808c-.527-2.567-2.824-4.5-5.579-4.5-2.754 0-5.051 1.933-5.579 4.5zm8.995 1.125c0 1.864-1.529 3.375-3.416 3.375s-3.416-1.51-3.416-3.375c0-1.864 1.53-3.375 3.416-3.375 1.887 0 3.416 1.51 3.416 3.375zM10.393 21.875H9.139C8.51 21.875 8 22.379 8 23s.51 1.125 1.139 1.125h1.254c.527 2.567 2.824 4.5 5.579 4.5 2.754 0 5.051-1.933 5.578-4.5h17.197c.629 0 1.139-.504 1.139-1.125s-.51-1.125-1.14-1.125H21.55c-.527-2.567-2.824-4.5-5.579-4.5-2.754 0-5.051 1.933-5.578 4.5zM19.388 23c0 1.864-1.53 3.375-3.417 3.375-1.886 0-3.416-1.51-3.416-3.375 0-1.864 1.53-3.375 3.417-3.375 1.886 0 3.416 1.51 3.416 3.375zm6.947-12.375H9.14C8.51 10.625 8 11.129 8 11.75s.51 1.125 1.139 1.125h17.197c.527 2.567 2.824 4.5 5.578 4.5 2.755 0 5.052-1.933 5.58-4.5h1.253c.629 0 1.139-.504 1.139-1.125 0-.62-.51-1.125-1.14-1.125h-1.253c-.527-2.567-2.824-4.5-5.579-4.5-2.754 0-5.051 1.933-5.579 4.5zm8.996 1.125c0 1.864-1.53 3.375-3.417 3.375-1.887 0-3.416-1.51-3.416-3.375 0-1.864 1.53-3.375 3.416-3.375 1.887 0 3.417 1.51 3.417 3.375z"/></g><defs><clipPath id="akclip0_862_5405"><path transform="translate(8 5)" d="M0 0h31.886v36H0z"/></clipPath></defs></svg><svg viewBox="0 0 32 31" id="icon-basket" xmlns="http://www.w3.org/2000/svg"><path d="M31.798 4.039a.923.923 0 00-.721-.347H6.509L5.822.715A.923.923 0 004.923 0h-4a.923.923 0 000 1.846H4.19l4.663 20.208c.097.419.47.715.9.715h18.494a.923.923 0 100-1.846h-17.76l-.71-3.077h18.532c.431 0 .806-.3.9-.72l2.77-12.308a.923.923 0 00-.18-.78zM27.569 16H9.35L6.937 5.538h22.987L27.57 16zM13.538 24a3.388 3.388 0 00-3.384 3.385 3.388 3.388 0 003.384 3.384 3.388 3.388 0 003.385-3.384A3.388 3.388 0 0013.538 24zm0 4.923A1.54 1.54 0 0112 27.385c0-.849.69-1.539 1.538-1.539.849 0 1.539.69 1.539 1.539a1.54 1.54 0 01-1.539 1.538zM24.615 24a3.388 3.388 0 00-3.384 3.385 3.388 3.388 0 003.384 3.384A3.388 3.388 0 0028 27.385 3.388 3.388 0 0024.615 24zm0 4.923a1.54 1.54 0 01-1.538-1.538c0-.849.69-1.539 1.538-1.539.849 0 1.539.69 1.539 1.539a1.54 1.54 0 01-1.539 1.538z"/></svg><svg viewBox="0 0 24 24" id="icon-close" xmlns="http://www.w3.org/2000/svg"><g clip-path="url(#amclip0_639_237)"><path d="M13.407 12.007L23.695 1.719A1 1 0 1022.28.306L11.994 10.593 1.705.305A1 1 0 00.292 1.72L10.58 12.007.292 22.294a1 1 0 001.414 1.414L11.993 13.42l10.288 10.288a1 1 0 001.414-1.414L13.407 12.007z"/></g><defs><clipPath id="amclip0_639_237"><path d="M0 0h24v24H0z"/></clipPath></defs></svg><svg viewBox="0 0 32 23" id="icon-del" xmlns="http://www.w3.org/2000/svg"><path d="M31.917 14.34l-1.62-2.479a3.866 3.866 0 00-3.25-1.75h-4.19v-2.41a2.671 2.671 0 00-2.669-2.668h-7.841A4.986 4.986 0 007.459.99 4.984 4.984 0 002.48 5.97c0 1.726.884 3.249 2.222 4.142H.508a.508.508 0 100 1.016h5.08v1.016H3.554a.508.508 0 000 1.016h2.032v1.015H.508a.508.508 0 100 1.016h5.08v2.25a2.548 2.548 0 00-1.525 2.328v.502c0 .28.228.508.509.508h4.505a2.811 2.811 0 002.732 2.173c1.33 0 2.445-.93 2.733-2.173h9.773a2.812 2.812 0 002.733 2.173c1.329 0 2.444-.93 2.733-2.173h1.711c.28 0 .508-.227.508-.508v-5.654a.508.508 0 00-.083-.278zM3.497 5.97a3.968 3.968 0 013.962-3.963 3.967 3.967 0 013.963 3.963 3.967 3.967 0 01-3.963 3.963A3.968 3.968 0 013.496 5.97zm3.106 9.221H7.62a.508.508 0 100-1.016H6.603V13.16h3.556a.508.508 0 100-1.016H6.603v-1.016h6.603a.508.508 0 100-1.016h-2.99a4.976 4.976 0 002.218-4.064h7.755c.91 0 1.652.742 1.652 1.653v9.522H6.603v-2.031zm15.238 4.572H14.59a2.797 2.797 0 00-.722-1.524h7.974v1.524zM6.61 18.239h3.142c-.382.413-.642.94-.721 1.524H5.079a1.532 1.532 0 011.53-1.524zm5.2 3.697a1.794 1.794 0 01-1.793-1.792c0-.988.805-1.792 1.792-1.792.989 0 1.793.804 1.793 1.792s-.804 1.792-1.793 1.792zm15.238 0a1.794 1.794 0 01-1.792-1.792c0-.988.804-1.792 1.792-1.792s1.792.804 1.792 1.792-.804 1.792-1.792 1.792zm3.936-2.173h-1.157a2.81 2.81 0 00-2.78-2.427 2.81 2.81 0 00-2.779 2.427h-1.41v-8.635h4.188c.976 0 1.874.482 2.401 1.288l1.537 2.352v4.995z"/><path d="M27.878 20.144a.83.83 0 11-1.661 0 .83.83 0 011.662 0zM12.64 20.144a.83.83 0 11-1.661 0 .83.83 0 011.661 0zM8.127 5.97V3.748a.508.508 0 10-1.016 0v2.056L6.074 7.226a.507.507 0 10.821.598L8.03 6.27a.508.508 0 00.097-.3zM26.876 11.636h-.971a.508.508 0 00-.508.508v3.555c0 .281.227.508.508.508h3.418a.874.874 0 00.764-.44.872.872 0 00.003-.88l-1.187-2.075a2.34 2.34 0 00-2.027-1.176zm-.463 3.556v-2.54h.463c.473 0 .911.254 1.145.664l1.072 1.875h-2.68z"/></svg><svg viewBox="0 0 32 29" id="icon-heart" xmlns="http://www.w3.org/2000/svg"><path d="M29.665 2.777C28.087.987 25.897 0 23.5 0c-3.372 0-5.506 2.014-6.703 3.703-.311.438-.575.878-.797 1.292a12.245 12.245 0 00-.797-1.292C14.006 2.013 11.872 0 8.5 0 6.103 0 3.913.986 2.335 2.777.829 4.486 0 6.774 0 9.22c0 2.662 1.04 5.139 3.272 7.793 1.994 2.373 4.864 4.818 8.187 7.65a385.452 385.452 0 013.883 3.34l.04.035a.935.935 0 001.236 0l.04-.035c1.364-1.193 2.644-2.284 3.883-3.34 3.323-2.832 6.193-5.277 8.187-7.65C30.96 14.36 32 11.883 32 9.22c0-2.446-.83-4.734-2.335-6.443zm-10.34 20.46c-1.068.909-2.167 1.845-3.325 2.852-1.158-1.007-2.257-1.943-3.325-2.853-6.503-5.542-10.8-9.203-10.8-14.016 0-1.99.663-3.837 1.866-5.203A6.258 6.258 0 018.5 1.875c2.57 0 4.232 1.584 5.174 2.912a11.113 11.113 0 011.435 2.854.937.937 0 001.782 0c.15-.461.591-1.662 1.436-2.854.94-1.328 2.602-2.912 5.173-2.912 1.851 0 3.541.76 4.759 2.142 1.203 1.366 1.866 3.213 1.866 5.203 0 4.813-4.297 8.474-10.8 14.016z"/></svg><svg viewBox="0 0 24 33" id="icon-location" xmlns="http://www.w3.org/2000/svg"><path d="M12 0C5.383 0 0 5.383 0 12c0 2.178.977 4.521 1.018 4.62.315.749.938 1.912 1.387 2.594l8.228 12.467c.336.51.835.804 1.367.804s1.03-.293 1.367-.804l8.229-12.467a19.277 19.277 0 001.387-2.594C23.023 16.522 24 14.18 24 12c0-6.617-5.383-12-12-12zm9.681 16.072a17.727 17.727 0 01-1.264 2.365l-8.229 12.467c-.162.247-.213.247-.376 0L3.584 18.437A17.735 17.735 0 012.32 16.07c-.012-.028-.908-2.185-.908-4.071C1.412 6.162 6.162 1.412 12 1.412c5.838 0 10.588 4.75 10.588 10.588 0 1.889-.898 4.051-.907 4.072z"/><path d="M12 5.648A6.36 6.36 0 005.647 12 6.36 6.36 0 0012 18.354 6.36 6.36 0 0018.353 12 6.36 6.36 0 0012 5.648zm0 11.294A4.947 4.947 0 017.059 12a4.947 4.947 0 014.94-4.941A4.947 4.947 0 0116.942 12 4.947 4.947 0 0112 16.943z"/></svg><svg viewBox="0 0 16 16" id="icon-minus" xmlns="http://www.w3.org/2000/svg"><path d="M15.333 7.333H.667a.667.667 0 100 1.334h14.666a.667.667 0 100-1.334z"/></svg><svg viewBox="0 0 16 16" id="icon-plus" xmlns="http://www.w3.org/2000/svg"><path d="M15.2 7.2H8.8V.8a.8.8 0 00-1.6 0v6.4H.8a.8.8 0 000 1.6h6.4v6.4a.8.8 0 001.6 0V8.8h6.4a.8.8 0 000-1.6z"/></svg><svg viewBox="0 0 21 20" id="icon-search" xmlns="http://www.w3.org/2000/svg"><path d="M9.02 16.472C4.477 16.472.78 12.777.78 8.236S4.476 0 9.02 0c4.545 0 8.242 3.695 8.242 8.236s-3.697 8.236-8.242 8.236zm0-14.91c-3.682 0-6.679 2.994-6.679 6.674s2.997 6.675 6.68 6.675 6.68-2.995 6.68-6.675c0-3.68-2.997-6.675-6.68-6.675zm11.53 18.21a.78.78 0 000-1.105l-3.496-3.493a.782.782 0 00-1.105 1.104l3.496 3.493a.779.779 0 001.105 0z"/></svg><svg viewBox="0 0 16 16" id="icon-star" xmlns="http://www.w3.org/2000/svg"><path d="M.023 5.796a.469.469 0 01.378-.32l4.96-.72L7.58.26a.469.469 0 01.84 0l2.219 4.495 4.96.72a.469.469 0 01.26.8l-3.59 3.499.848 4.94a.47.47 0 01-.68.494L8 12.877l-4.436 2.332a.469.469 0 01-.68-.494l.847-4.94-3.59-3.499a.469.469 0 01-.118-.48z"/></svg><svg viewBox="0 0 23 23" id="icon-tel" xmlns="http://www.w3.org/2000/svg"><path d="M21.463 16.589l-3.194-3.196a2.276 2.276 0 00-1.617-.662c-.64 0-1.242.252-1.698.708l-1.244 1.243c-.966-.537-2.25-1.275-3.583-2.609-1.332-1.332-2.07-2.612-2.61-3.583l1.244-1.244c.926-.927.945-2.415.043-3.316L5.61.737A2.266 2.266 0 003.993.072 2.39 2.39 0 002.324.75C2.05.97.674 2.186.161 4.69c-.718 3.507.932 6.882 5.695 11.648 5.322 5.32 9.865 5.733 11.13 5.733.264 0 .423-.017.465-.021 2.482-.291 3.37-1.393 4.02-2.198.84-1.043.837-2.416-.008-3.264zm-1.06 2.403c-.61.756-1.186 1.47-3.111 1.697-.001 0-.107.011-.306.011-1.132 0-5.211-.384-10.16-5.331C2.433 10.974.891 7.96 1.504 4.966c.448-2.185 1.635-3.114 1.682-3.15l.04-.03.036-.036a1.03 1.03 0 01.73-.307c.25 0 .479.093.648.263L7.834 4.9c.368.367.348.985-.043 1.377L6.384 7.683l-.023.024c-.367.404-.324.95-.122 1.306.583 1.052 1.382 2.493 2.918 4.03 1.532 1.531 2.97 2.33 4.02 2.911.104.06.321.158.593.158.32 0 .615-.136.832-.383l1.321-1.32c.197-.198.456-.306.728-.306.25 0 .48.093.649.261l3.192 3.193c.405.407.238 1.03-.09 1.435zM13.388 3.432c1.178.135 2.566.849 3.534 1.818.978.977 1.693 2.379 1.822 3.57a.686.686 0 101.364-.148c-.164-1.506-1.013-3.189-2.216-4.392-1.192-1.192-2.858-2.04-4.347-2.21a.686.686 0 10-.157 1.362zM12.748 6.304c.637.073 1.519.546 2.096 1.123.583.583 1.056 1.473 1.126 2.117a.686.686 0 101.363-.147c-.119-1.1-.849-2.269-1.52-2.94-.664-.664-1.821-1.39-2.909-1.516a.685.685 0 10-.156 1.363z"/></svg><svg viewBox="0 0 25 32" id="icon-user" xmlns="http://www.w3.org/2000/svg"><path d="M22.678 19.943a12.5 12.5 0 00-4.085-3.779 9.242 9.242 0 003.093-6.902C21.686 4.155 17.531 0 12.424 0S3.162 4.155 3.162 9.262a9.242 9.242 0 003.092 6.902 12.5 12.5 0 00-4.085 3.779A12.322 12.322 0 000 26.936V32h24.848v-5.064c0-2.505-.75-4.923-2.17-6.993zM5.101 9.263c0-4.039 3.285-7.324 7.323-7.324s7.323 3.285 7.323 7.323-3.285 7.323-7.323 7.323S5.1 13.3 5.1 9.262zM1.939 30.06v-3.125c0-4.109 2.38-7.794 6.101-9.516a9.205 9.205 0 004.384 1.104c1.585 0 3.078-.4 4.383-1.104 3.721 1.722 6.101 5.407 6.101 9.516v3.125H1.94z"/></svg><svg viewBox="0 0 33 32" id="instagram" xmlns="http://www.w3.org/2000/svg"><g clip-path="url(#awclip0_20_42)"><path d="M16.449 7.784c-4.506 0-8.154 3.677-8.154 8.21 0 4.538 3.652 8.211 8.154 8.211 4.505 0 8.153-3.677 8.153-8.21 0-4.538-3.651-8.211-8.153-8.211zm0 13.54c-2.925 0-5.293-2.385-5.293-5.33 0-2.943 2.369-5.329 5.293-5.329 2.923 0 5.292 2.386 5.292 5.33.001 2.944-2.367 5.329-5.292 5.329z"/><path d="M22.995.101c-2.924-.137-10.165-.13-13.091 0-2.572.122-4.84.747-6.669 2.588C.18 5.767.57 9.913.57 15.995c0 6.224-.344 10.274 2.665 13.305 3.068 3.088 7.246 2.684 13.214 2.684 6.122 0 8.235.004 10.4-.84 2.944-1.15 5.166-3.8 5.383-8.559.138-2.945.13-10.236 0-13.182C31.97 3.785 28.976.379 22.995.1zm4.628 27.163C25.619 29.28 22.84 29.1 16.41 29.1c-6.62 0-9.275.099-11.212-1.857-2.231-2.236-1.827-5.827-1.827-11.27C3.37 8.606 2.62 3.3 9.96 2.922c1.688-.06 2.184-.08 6.43-.08l.06.04c7.056 0 12.592-.744 12.925 6.648.075 1.686.092 2.193.092 6.462 0 6.59.124 9.279-1.845 11.27z"/><path d="M24.925 9.379a1.912 1.912 0 001.906-1.92c0-1.059-.853-1.918-1.905-1.918A1.912 1.912 0 0023.02 7.46c0 1.06.853 1.919 1.905 1.919z"/></g><defs><clipPath id="awclip0_20_42"><path transform="translate(.554)" d="M0 0h31.778v32H0z"/></clipPath></defs></svg><svg viewBox="0 0 26 17" id="nav-icon" xmlns="http://www.w3.org/2000/svg"><path d="M.917 0h24.896v1H.917zM.917 8h19.917v1H.917zM.917 16h24.896v1H.917z"/></svg><svg viewBox="0 0 60 60" id="product-arrow-left" xmlns="http://www.w3.org/2000/svg"><rect width="60" height="60" rx="6" fill-opacity=".8"/></svg><svg viewBox="0 0 60 60" id="product-arrow-right" xmlns="http://www.w3.org/2000/svg"><rect width="60" height="60" rx="6" fill-opacity=".8"/></svg><svg viewBox="0 0 21 20" id="search" xmlns="http://www.w3.org/2000/svg"><path d="M9.02 16.472C4.477 16.472.78 12.777.78 8.236S4.476 0 9.02 0c4.545 0 8.242 3.695 8.242 8.236s-3.697 8.236-8.242 8.236zm0-14.91c-3.682 0-6.679 2.994-6.679 6.674s2.997 6.675 6.68 6.675 6.68-2.995 6.68-6.675c0-3.68-2.997-6.675-6.68-6.675zm11.53 18.21a.78.78 0 000-1.105l-3.496-3.493a.782.782 0 00-1.105 1.104l3.496 3.493a.779.779 0 001.105 0z"/></svg><svg viewBox="0 0 48 48" id="search-bg" xmlns="http://www.w3.org/2000/svg"><rect width="48" height="48" rx="24"/><path d="M22.242 30.472c-4.545 0-8.242-3.695-8.242-8.236S17.697 14 22.242 14c4.545 0 8.242 3.695 8.242 8.236s-3.697 8.236-8.242 8.236zm0-14.91c-3.683 0-6.68 2.993-6.68 6.674 0 3.68 2.997 6.674 6.68 6.674s6.68-2.994 6.68-6.674-2.997-6.675-6.68-6.675zm11.53 18.21a.78.78 0 000-1.105l-3.497-3.493a.782.782 0 00-1.105 1.104l3.496 3.493a.78.78 0 001.105 0z"/></svg><svg viewBox="0 0 16 16" id="star" xmlns="http://www.w3.org/2000/svg"><path d="M.023 5.796a.469.469 0 01.378-.32l4.96-.72L7.58.26a.469.469 0 01.84 0l2.219 4.495 4.96.72a.469.469 0 01.26.8l-3.59 3.499.848 4.94a.47.47 0 01-.68.494L8 12.877l-4.436 2.332a.469.469 0 01-.68-.494l.847-4.94-3.59-3.499a.469.469 0 01-.118-.48z"/></svg><svg viewBox="0 0 33 32" id="telegram" xmlns="http://www.w3.org/2000/svg"><g clip-path="url(#bdclip0_20_46)"><path d="M13.328 20.241l-.526 7.446c.753 0 1.078-.326 1.469-.716l3.526-3.393 7.306 5.387c1.34.753 2.284.357 2.646-1.24l4.796-22.63.001-.002c.425-1.994-.716-2.774-2.022-2.285L2.334 13.676c-1.924.752-1.895 1.832-.327 2.322l7.207 2.257 16.74-10.548c.788-.526 1.505-.235.916.29L13.328 20.241z"/></g><defs><clipPath id="bdclip0_20_46"><path transform="translate(.86)" d="M0 0h31.778v32H0z"/></clipPath></defs></svg><svg viewBox="0 0 32 32" id="youtube" xmlns="http://www.w3.org/2000/svg"><g clip-path="url(#beclip0_20_48)"><path d="M31.24 7.905l.039.262c-.384-1.372-1.42-2.43-2.738-2.816l-.028-.007c-2.478-.677-12.447-.677-12.447-.677s-9.944-.014-12.446.677A4.045 4.045 0 00.862 8.14l-.007.028c-.925 4.868-.932 10.717.041 15.93l-.04-.265c.383 1.372 1.42 2.43 2.737 2.816l.028.007c2.475.678 12.447.678 12.447.678s9.942 0 12.446-.678a4.044 4.044 0 002.76-2.795l.006-.028c.421-2.264.662-4.87.662-7.53l-.001-.295.001-.307a43.3 43.3 0 00-.703-7.795zM12.885 20.868v-9.724l8.297 4.87-8.297 4.854z"/></g><defs><clipPath id="beclip0_20_48"><path transform="translate(.164)" d="M0 0h31.778v32H0z"/></clipPath></defs></svg></svg>