<svg width="9" height="9" viewBox="0 0 9 9" fill="none" xmlns="http://www.w3.org/2000/svg">
<g clip-path="url(#clip0_26184_274)">
<path d="M4.93838 4.23313L8.29337 0.87815C8.42286 0.753093 8.42645 0.546752 8.30139 0.417264C8.17633 0.287776 7.96999 0.284185 7.8405 0.409242C7.83779 0.411859 7.83512 0.414533 7.83248 0.417264L4.47748 3.77225L1.12249 0.417245C0.993001 0.292188 0.78666 0.295778 0.661602 0.425266C0.539601 0.551584 0.539601 0.751832 0.661602 0.87815L4.01659 4.23313L0.661602 7.58812C0.534349 7.71539 0.534349 7.92173 0.661602 8.049C0.788875 8.17624 0.995216 8.17624 1.12249 8.049L4.47748 4.69402L7.83246 8.049C7.96195 8.17406 8.16829 8.17047 8.29335 8.04098C8.41533 7.91466 8.41533 7.71442 8.29335 7.58812L4.93838 4.23313Z" fill="black"/>
</g>
<defs>
<clipPath id="clip0_26184_274">
<rect width="7.8267" height="7.8267" fill="white" transform="translate(0.566406 0.317322)"/>
</clipPath>
</defs>
</svg>
